<svg id="svg" xmlns="http://www.w3.org/2000/svg" xmlns:xlink="http://www.w3.org/1999/xlink" width="400" height="400" viewBox="0, 0, 400,400"><g id="svgg"><path id="path0" d="M181.722 10.834 C 179.585 11.540,167.782 18.485,166.767 19.633 C 166.684 19.727,165.733 20.549,164.653 21.458 C 163.573 22.368,162.485 23.316,162.235 23.565 C 161.986 23.814,161.306 24.352,160.724 24.761 C 159.217 25.820,152.086 33.241,149.824 36.103 C 148.774 37.432,147.611 38.849,147.239 39.251 C 146.533 40.016,144.426 43.084,141.621 47.432 C 138.281 52.609,133.812 62.607,131.899 69.184 C 131.681 69.932,131.302 71.020,131.056 71.601 C 130.810 72.183,130.515 73.202,130.400 73.867 C 130.286 74.532,130.005 75.551,129.775 76.133 C 129.546 76.715,129.139 78.278,128.871 79.607 C 128.603 80.937,128.270 82.568,128.132 83.233 C 126.398 91.549,125.368 97.511,125.366 99.245 C 125.360 103.029,124.718 103.971,122.740 103.098 C 120.053 101.910,115.709 100.701,112.538 100.257 C 111.375 100.095,109.675 99.735,108.761 99.459 C 105.905 98.595,83.329 98.531,78.166 99.372 C 76.043 99.717,73.778 100.000,73.132 100.000 C 72.485 100.000,70.891 100.216,69.589 100.479 C 68.286 100.743,66.337 101.066,65.257 101.198 C 61.082 101.706,56.648 102.855,50.000 105.151 C 45.344 106.759,43.060 107.648,42.568 108.045 C 42.335 108.232,41.813 108.487,41.406 108.612 C 41.000 108.737,40.048 109.210,39.291 109.662 C 38.535 110.114,37.032 110.968,35.952 111.560 C 34.872 112.152,33.648 112.925,33.233 113.278 C 32.817 113.631,31.730 114.410,30.816 115.009 C 26.482 117.850,19.630 124.114,19.646 125.220 C 19.651 125.556,20.339 126.850,21.174 128.097 C 22.616 130.249,27.795 140.395,27.795 141.069 C 27.795 141.243,28.423 142.740,29.191 144.394 C 30.951 148.188,30.887 148.650,28.474 149.541 C 27.519 149.894,25.582 150.839,24.169 151.642 C 22.757 152.444,20.378 153.709,18.882 154.453 C 17.387 155.196,15.211 156.407,14.048 157.145 C 12.885 157.882,11.186 158.808,10.272 159.203 C 7.857 160.246,7.136 161.116,7.400 162.665 C 7.515 163.343,7.782 165.121,7.992 166.616 C 8.591 170.883,10.325 176.226,12.653 180.981 C 15.469 186.731,17.387 190.169,19.652 193.527 C 20.475 194.746,21.148 195.817,21.148 195.908 C 21.148 195.998,21.386 196.334,21.677 196.653 C 21.968 196.972,23.021 198.408,24.018 199.845 C 29.192 207.299,40.849 219.278,46.332 222.773 C 47.305 223.393,48.552 224.335,49.104 224.866 C 49.655 225.397,51.306 226.577,52.772 227.489 C 54.238 228.401,56.008 229.577,56.706 230.102 C 57.403 230.628,59.007 231.649,60.272 232.372 C 61.536 233.094,63.413 234.184,64.443 234.793 C 65.472 235.402,68.353 236.946,70.846 238.225 C 73.338 239.503,75.514 240.653,75.680 240.779 C 75.846 240.906,76.480 241.169,77.088 241.365 C 78.396 241.786,78.737 242.442,78.106 243.321 C 77.854 243.671,77.422 244.298,77.146 244.713 C 76.871 245.128,76.280 246.012,75.833 246.677 C 73.747 249.783,69.001 260.576,66.865 267.069 C 66.456 268.316,65.926 269.783,65.688 270.329 C 65.164 271.533,64.387 273.858,63.295 277.492 C 62.846 278.988,62.369 280.347,62.235 280.514 C 62.102 280.680,61.839 281.427,61.651 282.175 C 61.249 283.780,60.266 287.208,59.660 289.124 C 59.205 290.561,58.140 296.097,57.683 299.396 C 56.658 306.797,56.905 320.434,58.150 325.166 C 58.403 326.129,58.609 327.285,58.607 327.734 C 58.606 328.183,58.870 329.366,59.196 330.363 C 59.521 331.360,60.163 333.399,60.623 334.894 C 61.842 338.859,64.048 343.807,64.598 343.807 C 64.728 343.807,64.967 343.673,65.131 343.510 C 65.776 342.864,69.041 341.390,69.824 341.390 C 70.281 341.390,71.008 341.256,71.438 341.092 C 73.789 340.198,87.387 339.716,88.807 340.476 C 89.196 340.684,89.428 341.264,89.565 342.367 C 89.673 343.242,89.880 344.637,90.026 345.468 C 90.648 349.030,91.804 358.377,91.988 361.329 C 92.338 366.963,92.253 366.830,95.770 367.191 C 101.334 367.760,102.820 367.805,111.480 367.663 C 120.429 367.516,131.097 365.882,134.186 364.187 C 134.627 363.944,135.380 363.746,135.859 363.746 C 136.338 363.746,137.264 363.474,137.915 363.142 C 138.567 362.810,139.326 362.538,139.602 362.538 C 140.623 362.538,144.815 361.028,148.792 359.228 C 149.456 358.927,150.748 358.381,151.662 358.014 C 152.576 357.647,154.029 357.019,154.891 356.619 C 155.753 356.219,156.568 355.891,156.703 355.890 C 156.838 355.889,157.560 355.480,158.308 354.980 C 159.056 354.480,160.177 353.932,160.801 353.761 C 161.424 353.591,161.934 353.320,161.934 353.161 C 161.934 353.001,162.124 352.870,162.358 352.870 C 162.591 352.870,164.189 351.946,165.908 350.817 C 167.627 349.687,169.849 348.263,170.846 347.652 C 172.581 346.589,173.858 345.585,175.554 343.953 C 175.983 343.540,176.471 343.202,176.637 343.202 C 176.804 343.202,177.540 342.623,178.273 341.915 C 179.007 341.207,180.559 339.853,181.722 338.905 C 184.017 337.035,188.837 332.189,191.659 328.915 C 193.566 326.702,193.866 326.604,194.566 327.964 C 195.343 329.474,197.207 332.450,197.871 333.238 C 203.145 339.505,210.935 347.083,214.589 349.503 C 215.002 349.776,216.223 350.680,217.303 351.511 C 218.383 352.341,219.573 353.225,219.947 353.474 C 220.322 353.724,220.983 354.201,221.417 354.536 C 221.850 354.870,222.817 355.468,223.565 355.865 C 224.313 356.261,225.128 356.753,225.378 356.959 C 225.627 357.165,227.326 358.183,229.154 359.223 C 230.982 360.262,232.681 361.275,232.931 361.473 C 233.180 361.672,233.860 362.014,234.441 362.235 C 235.023 362.455,237.532 363.633,240.017 364.853 C 242.502 366.072,244.752 367.069,245.017 367.069 C 245.282 367.069,245.630 367.201,245.790 367.361 C 245.950 367.521,247.303 367.991,248.796 368.406 C 250.289 368.821,252.598 369.501,253.927 369.917 C 260.706 372.040,268.471 373.104,277.190 373.105 C 286.601 373.107,288.161 372.728,287.287 370.655 C 286.377 368.497,287.098 359.921,288.617 354.834 C 289.014 353.505,289.502 351.737,289.702 350.906 C 290.515 347.519,291.699 347.362,300.604 349.453 C 301.684 349.707,303.452 350.085,304.532 350.294 C 305.612 350.503,306.903 350.840,307.402 351.043 C 307.900 351.245,308.920 351.526,309.668 351.666 C 310.415 351.806,312.696 352.362,314.735 352.901 L 318.443 353.881 319.475 352.881 C 320.536 351.853,323.263 347.504,323.263 346.841 C 323.263 346.636,323.522 346.103,323.840 345.658 C 324.642 344.530,326.280 340.892,326.494 339.761 C 326.591 339.244,326.783 338.678,326.919 338.502 C 327.056 338.327,327.364 337.428,327.604 336.506 C 327.845 335.584,328.251 334.165,328.508 333.352 C 329.201 331.156,330.460 324.904,330.662 322.659 C 330.759 321.579,331.030 319.335,331.265 317.674 C 332.013 312.376,331.807 294.735,330.963 291.843 C 330.891 291.594,330.693 290.098,330.524 288.520 C 330.142 284.955,329.404 280.737,328.779 278.550 C 328.518 277.636,328.207 276.412,328.087 275.831 C 327.176 271.401,322.426 258.626,319.887 253.776 C 317.642 249.490,316.656 247.760,315.428 245.952 C 313.684 243.383,313.699 242.946,315.559 242.229 C 318.937 240.926,324.175 238.486,325.520 237.589 C 326.038 237.243,326.912 236.804,327.461 236.612 C 328.546 236.234,337.779 230.565,338.369 229.915 C 338.452 229.823,339.475 229.109,340.643 228.327 C 341.812 227.546,343.098 226.596,343.503 226.217 C 343.907 225.839,344.466 225.393,344.745 225.227 C 345.409 224.831,349.746 221.421,350.906 220.381 C 351.405 219.935,352.289 219.212,352.870 218.775 C 353.452 218.337,353.995 217.903,354.079 217.809 C 354.162 217.715,354.516 217.443,354.866 217.203 C 356.925 215.794,364.159 208.818,366.607 205.880 C 367.432 204.889,368.724 203.389,369.477 202.545 C 371.875 199.859,376.526 193.198,378.533 189.577 C 379.086 188.580,379.632 187.696,379.746 187.613 C 380.007 187.424,383.686 179.567,383.686 179.199 C 383.686 179.050,383.970 178.286,384.318 177.500 C 385.104 175.723,386.103 172.167,386.103 171.145 C 386.103 170.558,385.768 170.172,384.668 169.490 C 383.878 169.001,383.093 168.483,382.922 168.339 C 382.084 167.632,378.317 165.302,377.719 165.120 C 377.345 165.007,377.039 164.800,377.039 164.662 C 377.039 164.523,376.637 164.269,376.146 164.098 C 375.655 163.927,374.429 163.227,373.421 162.542 C 372.412 161.858,370.896 160.931,370.052 160.483 C 366.384 158.536,365.579 158.093,363.669 156.965 C 362.559 156.310,361.590 155.615,361.515 155.420 C 361.399 155.117,363.619 151.116,365.528 148.187 C 366.590 146.558,371.147 139.160,372.041 137.613 C 372.521 136.782,373.318 135.597,373.812 134.979 C 375.108 133.355,375.265 131.299,374.229 129.531 C 371.948 125.639,365.384 118.760,361.255 115.935 C 360.467 115.396,358.971 114.341,357.932 113.591 C 355.992 112.192,353.085 110.422,350.151 108.855 C 347.642 107.516,347.367 107.377,346.224 106.878 C 345.642 106.624,343.467 105.658,341.390 104.731 C 339.313 103.804,337.002 102.825,336.254 102.555 C 330.004 100.298,324.443 98.388,323.565 98.196 C 322.983 98.069,320.400 97.481,317.825 96.889 C 315.249 96.297,311.986 95.660,310.574 95.474 C 309.162 95.287,307.054 94.955,305.891 94.736 C 298.739 93.386,280.886 94.518,274.077 96.752 C 271.511 97.594,271.343 97.408,270.986 93.324 C 270.696 90.010,270.669 89.857,269.045 82.477 C 267.716 76.433,267.264 74.772,266.500 73.112 C 266.156 72.364,265.868 71.480,265.861 71.148 C 265.854 70.816,265.502 69.592,265.080 68.429 C 264.657 67.266,264.046 65.566,263.722 64.653 C 263.399 63.739,262.714 62.107,262.200 61.027 C 261.687 59.947,260.861 58.044,260.366 56.798 C 259.312 54.143,257.157 49.789,255.730 47.432 C 252.777 42.552,248.963 37.011,247.329 35.227 C 246.857 34.712,246.246 33.956,245.970 33.548 C 243.086 29.278,231.295 18.857,226.888 16.683 C 226.473 16.478,225.589 15.971,224.924 15.555 C 221.325 13.307,220.921 13.229,219.564 14.526 C 219.028 15.038,218.248 15.664,217.830 15.916 C 217.412 16.169,216.476 17.110,215.750 18.008 C 215.025 18.906,213.627 20.353,212.643 21.225 C 211.659 22.096,209.389 24.271,207.597 26.057 C 205.579 28.070,204.105 29.305,203.721 29.305 C 203.319 29.305,200.678 26.902,196.168 22.432 C 183.163 9.541,183.884 10.120,181.722 10.834 M187.678 26.208 C 188.449 26.998,190.653 29.249,192.574 31.210 C 194.496 33.172,196.438 35.279,196.890 35.893 C 197.342 36.507,198.204 37.559,198.805 38.230 C 201.000 40.685,202.377 45.484,202.009 49.396 C 201.787 51.750,202.143 53.305,202.931 53.417 C 203.959 53.565,204.501 52.399,204.675 49.664 C 205.074 43.425,206.866 39.758,211.733 35.225 C 212.820 34.212,213.926 33.175,214.191 32.921 C 215.754 31.417,218.532 29.305,218.947 29.305 C 220.111 29.305,226.221 33.824,229.772 37.311 C 230.618 38.142,232.048 39.514,232.951 40.360 C 235.233 42.499,237.801 45.269,238.667 46.526 C 239.067 47.107,240.116 48.388,240.997 49.372 C 241.878 50.355,242.598 51.258,242.598 51.378 C 242.598 51.498,243.312 52.739,244.184 54.136 C 245.057 55.533,246.518 58.165,247.432 59.985 C 248.346 61.804,249.192 63.367,249.312 63.457 C 249.491 63.591,250.567 65.992,253.164 72.054 C 254.306 74.722,256.125 80.997,256.667 84.139 C 257.561 89.323,257.718 91.113,257.726 96.224 C 257.741 105.858,257.443 109.762,255.890 120.323 C 255.376 123.817,255.456 123.891,257.828 122.104 C 258.673 121.466,259.705 120.766,260.121 120.548 C 260.536 120.330,260.944 120.055,261.027 119.937 C 261.110 119.818,261.586 119.507,262.085 119.244 C 262.583 118.981,263.399 118.406,263.897 117.965 C 264.396 117.524,265.415 116.810,266.163 116.378 C 267.527 115.590,269.506 114.217,269.789 113.862 C 270.100 113.472,280.545 107.322,281.269 107.103 C 281.684 106.977,282.177 106.753,282.363 106.605 C 284.870 104.607,297.620 103.601,304.741 104.837 C 306.869 105.207,309.358 105.611,310.272 105.736 C 313.698 106.202,321.756 108.330,323.625 109.261 C 324.074 109.485,324.758 109.668,325.144 109.668 C 325.531 109.668,326.116 109.847,326.443 110.066 C 326.771 110.285,327.719 110.711,328.550 111.014 C 331.323 112.023,338.288 115.335,338.558 115.772 C 338.640 115.904,338.913 116.012,339.165 116.012 C 339.571 116.012,341.940 117.353,347.701 120.846 C 348.661 121.427,349.978 122.323,350.629 122.835 C 351.280 123.348,352.968 124.564,354.381 125.539 C 355.793 126.513,357.100 127.453,357.285 127.628 C 358.734 128.999,360.499 130.560,361.707 131.538 C 363.691 133.146,363.629 133.530,360.570 138.489 C 359.658 139.967,358.912 141.246,358.912 141.329 C 358.912 141.413,358.497 142.039,357.990 142.720 C 357.482 143.401,356.264 145.246,355.283 146.821 C 352.835 150.750,350.997 152.598,347.885 154.260 C 347.054 154.704,345.732 155.598,344.946 156.247 C 344.160 156.896,342.896 157.614,342.137 157.842 C 340.126 158.447,339.275 159.093,339.275 160.011 C 339.275 160.918,339.378 160.914,343.353 159.844 C 344.683 159.486,346.066 159.266,346.426 159.355 C 346.787 159.444,347.621 159.584,348.280 159.667 C 350.337 159.925,353.289 160.979,354.113 161.749 C 354.548 162.155,355.703 162.936,356.681 163.485 C 357.659 164.034,358.595 164.597,358.761 164.737 C 358.927 164.876,359.760 165.424,360.612 165.955 C 362.555 167.165,365.661 169.273,365.861 169.519 C 365.944 169.621,366.420 169.919,366.918 170.183 C 367.417 170.446,368.505 171.293,369.335 172.065 C 370.166 172.838,371.278 173.806,371.806 174.216 C 372.649 174.872,372.731 175.060,372.481 175.774 C 372.121 176.806,365.570 187.092,364.234 188.723 C 363.986 189.027,362.976 190.363,361.991 191.692 C 361.005 193.021,359.944 194.385,359.631 194.723 C 358.853 195.565,356.128 198.776,355.416 199.690 C 353.764 201.809,344.181 211.010,341.647 212.910 C 340.044 214.112,338.147 215.642,337.431 216.309 C 336.715 216.977,335.999 217.523,335.840 217.523 C 335.681 217.523,333.940 218.616,331.970 219.951 C 330.001 221.287,327.542 222.826,326.506 223.372 C 325.470 223.917,323.753 224.867,322.691 225.483 C 321.628 226.099,319.793 227.014,318.612 227.518 C 317.431 228.021,315.242 228.970,313.746 229.627 C 308.353 231.994,303.536 232.788,298.640 232.118 C 296.979 231.891,294.124 231.506,292.296 231.262 C 290.468 231.018,288.173 230.677,287.196 230.505 C 284.773 230.076,284.727 229.979,288.841 234.020 C 296.608 241.649,303.035 250.092,306.867 257.704 C 307.327 258.618,307.787 259.434,307.888 259.517 C 308.170 259.748,309.874 263.533,310.420 265.141 C 310.687 265.929,311.095 266.922,311.326 267.350 C 312.549 269.612,315.327 278.697,315.999 282.628 C 316.197 283.792,316.482 285.355,316.632 286.103 C 316.782 286.850,317.041 288.482,317.209 289.728 C 317.376 290.974,317.642 292.851,317.799 293.898 C 318.402 297.911,318.807 307.745,318.620 313.863 C 318.291 324.652,317.968 327.180,316.124 333.384 C 315.728 334.713,315.406 335.954,315.407 336.142 C 315.410 336.962,312.111 343.816,311.623 344.003 C 311.423 344.080,310.429 343.863,309.415 343.521 C 308.402 343.180,307.087 342.900,306.495 342.900 C 305.903 342.900,304.968 342.712,304.417 342.482 C 303.866 342.252,302.681 341.968,301.783 341.850 C 300.886 341.733,299.539 341.442,298.792 341.204 C 298.044 340.966,295.695 340.377,293.572 339.896 C 290.025 339.092,287.009 337.849,287.009 337.192 C 287.009 337.058,286.635 336.550,286.178 336.063 C 285.721 335.577,284.887 334.639,284.324 333.979 C 282.861 332.263,280.314 330.211,279.646 330.211 C 278.891 330.211,279.126 331.781,280.339 334.834 C 281.832 338.593,281.759 341.821,280.067 346.828 C 279.759 347.742,279.305 349.509,279.060 350.755 C 277.707 357.629,276.376 360.137,273.716 360.820 C 272.510 361.129,261.404 359.043,256.949 357.670 C 249.849 355.482,237.926 350.119,236.858 348.633 C 236.775 348.517,236.231 348.179,235.650 347.881 C 234.592 347.338,232.913 346.233,232.628 345.891 C 232.545 345.791,231.866 345.335,231.118 344.877 C 228.918 343.530,227.502 342.559,224.905 340.615 C 223.559 339.607,221.958 338.473,221.346 338.096 C 220.735 337.718,219.854 337.047,219.390 336.605 C 218.925 336.162,218.279 335.597,217.954 335.347 C 208.259 327.918,199.605 316.877,196.549 308.037 C 195.083 303.797,194.280 303.769,192.259 307.885 C 191.574 309.281,190.154 312.178,189.105 314.323 C 187.899 316.787,186.698 318.764,185.841 319.695 C 185.095 320.504,184.277 321.469,184.023 321.837 C 182.324 324.303,173.267 332.334,168.429 335.664 C 163.352 339.159,147.237 347.698,143.171 349.048 C 142.406 349.302,140.843 349.905,139.697 350.389 C 137.379 351.368,136.694 351.616,131.873 353.229 C 131.375 353.396,130.219 353.704,129.305 353.914 C 128.391 354.125,126.896 354.502,125.982 354.752 C 115.517 357.622,101.228 358.514,99.853 356.383 C 99.199 355.370,98.100 344.475,98.340 341.390 C 98.782 335.729,100.307 331.064,102.764 327.858 C 104.203 325.981,104.547 325.005,103.908 324.611 C 103.354 324.268,100.043 325.709,98.863 326.807 C 96.175 329.308,91.780 330.997,86.103 331.710 C 85.023 331.846,81.896 332.251,79.154 332.611 C 69.769 333.842,70.246 333.911,69.778 331.252 C 69.604 330.264,69.266 328.437,69.028 327.190 C 67.370 318.523,68.214 298.768,70.550 291.541 C 70.792 290.793,71.127 289.434,71.294 288.520 C 71.462 287.606,71.890 285.906,72.245 284.743 C 72.600 283.580,73.154 281.745,73.477 280.665 C 73.800 279.585,74.307 278.021,74.604 277.190 C 74.900 276.360,75.387 274.932,75.686 274.018 C 76.319 272.080,79.236 265.374,80.216 263.605 C 80.587 262.935,81.291 261.639,81.781 260.725 C 83.533 257.454,84.629 255.632,85.060 255.275 C 85.301 255.075,85.498 254.770,85.498 254.599 C 85.498 254.427,85.872 253.800,86.329 253.205 C 86.786 252.611,87.296 251.902,87.462 251.631 C 88.370 250.149,91.369 246.314,92.163 245.619 C 92.258 245.536,92.793 244.789,93.353 243.958 C 93.912 243.127,94.542 242.342,94.753 242.214 C 95.276 241.896,95.717 241.428,97.127 239.697 C 97.790 238.883,98.776 237.800,99.317 237.290 C 100.336 236.330,100.581 235.661,99.924 235.634 C 97.603 235.535,87.186 232.958,83.616 231.599 C 80.343 230.354,72.242 226.156,70.299 224.699 C 69.769 224.302,68.520 223.523,67.523 222.968 C 66.526 222.413,64.870 221.369,63.844 220.648 C 62.817 219.926,61.118 218.769,60.067 218.076 C 59.017 217.383,58.089 216.731,58.006 216.626 C 57.923 216.522,57.379 216.110,56.798 215.711 C 51.403 212.009,42.217 203.916,38.817 199.869 C 37.989 198.884,37.003 197.790,36.626 197.439 C 36.250 197.089,35.502 196.174,34.965 195.408 C 30.809 189.476,29.223 187.150,29.051 186.735 C 28.942 186.470,28.163 185.098,27.322 183.686 C 24.719 179.319,19.739 168.888,19.231 166.741 C 19.005 165.784,19.310 165.392,21.450 163.890 C 22.364 163.248,23.316 162.545,23.565 162.328 C 25.445 160.685,26.956 159.630,28.260 159.050 C 29.097 158.677,29.970 158.146,30.200 157.869 C 30.429 157.593,31.035 157.171,31.547 156.931 C 32.059 156.691,33.175 156.112,34.029 155.643 C 38.222 153.339,42.653 152.676,46.474 153.780 C 48.893 154.479,49.849 154.449,49.849 153.676 C 49.849 152.527,47.732 151.105,43.051 149.111 C 41.537 148.465,30.990 127.921,31.721 127.040 C 32.986 125.516,45.230 118.922,50.000 117.196 C 50.997 116.835,52.289 116.360,52.870 116.141 C 56.361 114.824,63.586 112.792,66.314 112.361 C 71.078 111.609,77.055 110.901,78.264 110.947 C 79.003 110.975,82.358 110.887,85.721 110.751 C 92.373 110.483,102.777 110.924,106.495 111.632 C 107.659 111.854,109.630 112.200,110.876 112.401 C 114.150 112.930,115.102 113.163,120.695 114.802 C 122.523 115.337,124.358 115.948,124.773 116.159 C 125.189 116.371,126.005 116.640,126.586 116.757 C 127.632 116.969,128.650 117.384,132.175 119.036 C 137.106 121.346,136.908 121.449,135.846 117.134 C 134.244 110.620,134.125 97.971,135.615 92.598 C 135.799 91.934,136.166 90.370,136.429 89.124 C 136.692 87.878,137.089 86.450,137.311 85.952 C 137.532 85.453,137.780 84.637,137.862 84.139 C 138.036 83.069,138.812 80.756,139.634 78.852 C 140.246 77.432,140.907 76.124,143.534 71.128 C 144.402 69.478,145.601 67.175,146.199 66.012 C 146.796 64.849,147.726 63.261,148.265 62.483 C 148.804 61.706,149.245 60.950,149.245 60.803 C 149.245 60.657,149.487 60.273,149.784 59.951 C 150.081 59.629,151.061 58.142,151.963 56.647 C 152.865 55.151,153.880 53.565,154.219 53.122 C 154.557 52.678,155.378 51.534,156.042 50.579 C 162.513 41.278,172.120 31.749,178.399 28.402 C 179.728 27.694,180.952 27.009,181.118 26.880 C 184.124 24.551,185.881 24.371,187.678 26.208 M196.720 90.657 C 186.630 92.641,183.872 103.286,191.306 111.558 C 192.140 112.486,192.303 112.882,192.203 113.737 C 192.006 115.425,191.680 115.528,185.378 115.895 C 179.867 116.216,174.340 117.089,170.419 118.258 C 169.657 118.485,168.082 118.946,166.918 119.281 C 160.991 120.992,152.259 124.655,147.734 127.329 C 147.319 127.575,145.415 128.688,143.505 129.802 C 135.287 134.596,131.220 137.971,128.123 142.565 C 127.722 143.159,127.214 143.826,126.995 144.046 C 126.775 144.265,126.104 145.282,125.505 146.306 C 124.595 147.857,121.961 151.602,118.655 156.042 C 115.045 160.891,113.664 163.491,112.679 167.290 C 111.709 171.029,111.174 171.495,109.319 170.210 C 108.459 169.613,108.079 169.083,107.851 168.162 C 106.943 164.493,106.685 164.096,103.776 161.903 C 101.111 159.893,98.948 159.118,96.439 159.273 C 86.119 159.911,81.513 174.397,89.879 179.905 C 90.773 180.494,91.279 180.720,93.958 181.729 C 96.273 182.600,101.784 181.927,102.719 180.658 C 103.086 180.159,104.286 179.758,105.411 179.758 C 107.905 179.758,108.086 182.245,106.080 188.908 C 104.441 194.351,104.002 208.933,105.291 215.106 C 105.990 218.448,108.119 226.488,108.813 228.399 C 109.144 229.313,109.521 230.536,109.649 231.118 C 111.975 241.645,119.000 253.541,126.891 260.314 C 127.557 260.886,129.427 262.991,130.861 264.784 C 132.069 266.294,134.714 268.829,136.089 269.794 C 139.352 272.086,139.533 272.424,137.991 273.351 C 137.277 273.780,136.204 273.991,134.056 274.123 C 129.575 274.399,128.020 275.246,126.484 278.248 C 125.846 279.494,125.212 280.650,125.075 280.816 C 124.513 281.499,124.129 284.939,124.448 286.428 C 124.793 288.038,125.917 290.634,126.269 290.634 C 126.390 290.634,127.126 291.455,127.905 292.458 C 129.671 294.732,129.999 294.852,134.527 294.881 C 143.020 294.936,145.921 291.369,145.921 280.870 C 145.921 276.823,146.697 276.463,150.604 278.696 C 151.601 279.266,153.301 280.174,154.381 280.714 C 155.461 281.254,156.900 282.071,157.580 282.528 C 159.417 283.766,166.788 286.402,168.429 286.408 C 168.927 286.410,170.015 286.619,170.846 286.873 C 172.322 287.324,179.471 288.333,182.779 288.558 C 186.116 288.784,193.606 288.621,197.583 288.236 C 203.014 287.709,214.067 285.405,216.465 284.299 C 218.746 283.247,221.002 282.385,224.165 281.356 C 229.042 279.768,231.018 278.901,233.141 277.417 C 235.824 275.542,235.902 275.648,236.050 281.422 C 236.266 289.820,238.331 291.930,246.375 291.973 L 250.302 291.994 252.161 290.564 C 260.858 283.872,257.690 270.695,247.383 270.695 C 244.612 270.695,244.770 269.327,247.823 266.886 C 249.020 265.928,250.272 264.800,250.604 264.380 C 250.937 263.959,251.976 262.862,252.915 261.943 C 254.568 260.324,257.117 257.333,259.142 254.635 C 259.684 253.914,260.593 252.711,261.162 251.964 C 261.731 251.216,262.629 249.856,263.157 248.943 C 263.686 248.029,264.303 247.071,264.528 246.814 C 266.197 244.908,273.112 230.345,273.112 228.736 C 273.112 228.539,273.327 228.049,273.590 227.647 C 274.273 226.606,274.847 223.766,275.380 218.796 C 275.635 216.423,276.053 213.500,276.309 212.301 C 277.516 206.644,277.561 191.784,276.382 187.967 C 275.838 186.205,275.829 185.999,276.272 185.324 C 277.052 184.132,277.668 184.255,282.742 186.611 C 288.401 189.238,292.092 188.650,296.034 184.493 C 302.626 177.540,298.401 165.449,289.390 165.480 C 283.224 165.502,280.549 166.942,277.790 171.725 C 275.835 175.113,273.909 175.863,272.864 173.640 C 271.867 171.518,270.256 167.732,268.768 164.010 C 266.778 159.030,264.059 154.375,260.348 149.594 C 257.624 146.084,249.856 138.166,246.828 135.812 C 245.582 134.843,244.426 133.893,244.260 133.702 C 243.868 133.252,240.011 130.514,239.768 130.514 C 239.665 130.514,239.268 130.241,238.884 129.907 C 237.778 128.946,232.429 125.760,231.287 125.384 C 230.717 125.195,230.208 124.932,230.155 124.799 C 229.991 124.379,224.134 121.556,221.450 120.602 C 214.855 118.258,212.873 117.755,207.402 117.040 C 202.518 116.401,202.480 116.392,202.114 115.709 C 201.819 115.157,202.696 112.304,203.322 111.782 C 204.483 110.815,207.740 106.547,208.342 105.206 C 210.097 101.292,207.720 94.356,203.987 92.495 C 202.570 91.789,198.538 90.303,198.210 90.365 C 198.114 90.384,197.444 90.515,196.720 90.657 M192.167 124.482 C 192.937 124.875,193.700 125.629,194.277 126.568 C 195.741 128.947,196.523 128.910,197.709 126.406 C 198.800 124.102,199.350 123.908,202.819 124.610 C 204.343 124.918,205.997 125.340,206.495 125.548 C 206.994 125.756,208.421 126.155,209.668 126.434 C 214.554 127.530,215.323 127.730,217.221 128.395 C 220.521 129.551,230.211 134.080,230.211 134.465 C 230.211 134.578,230.653 134.850,231.193 135.069 C 232.510 135.605,239.374 139.908,239.879 140.514 C 239.962 140.613,240.358 140.868,240.758 141.079 C 241.425 141.430,242.126 142.005,244.453 144.109 C 244.912 144.524,245.737 145.201,246.285 145.613 C 248.644 147.387,253.917 153.247,256.495 156.960 C 256.911 157.558,257.557 158.432,257.931 158.901 C 258.304 159.371,258.610 159.905,258.610 160.089 C 258.610 160.273,258.728 160.423,258.871 160.423 C 259.015 160.423,259.373 161.069,259.668 161.858 C 259.963 162.647,260.365 163.497,260.562 163.746 C 260.758 163.995,261.290 165.083,261.744 166.163 C 262.197 167.243,262.694 168.331,262.847 168.580 C 263.667 169.910,264.947 172.927,265.116 173.928 C 265.223 174.559,265.519 175.647,265.773 176.346 C 266.329 177.874,266.113 178.995,265.047 180.116 C 263.803 181.424,264.260 182.494,266.616 183.793 C 268.266 184.703,268.447 185.210,269.213 191.091 C 270.195 198.628,270.172 209.234,269.165 213.044 C 269.003 213.655,268.745 215.083,268.591 216.217 C 267.323 225.540,263.887 235.053,258.461 244.260 C 258.070 244.924,257.636 245.604,257.498 245.770 C 257.360 245.937,256.508 247.024,255.605 248.187 C 254.702 249.350,251.734 252.475,249.009 255.131 C 246.285 257.787,243.312 260.948,242.404 262.155 C 241.495 263.363,240.551 264.350,240.306 264.350 C 239.462 264.350,237.624 263.416,236.790 262.562 C 234.507 260.227,232.604 261.863,233.835 265.101 C 234.157 265.946,233.580 267.452,232.431 268.765 C 231.193 270.181,222.129 275.529,220.967 275.529 C 220.776 275.529,219.850 275.869,218.911 276.284 C 217.803 276.774,216.649 277.040,215.626 277.041 C 214.614 277.042,212.740 277.468,210.400 278.229 C 203.159 280.584,199.257 281.137,190.181 281.090 C 183.005 281.053,179.949 280.638,170.997 278.484 C 167.602 277.667,157.913 274.454,156.193 273.575 C 155.446 273.193,153.882 272.475,152.719 271.980 C 149.987 270.816,149.593 270.141,150.478 268.141 C 151.634 265.528,150.922 265.296,147.150 267.056 C 144.297 268.387,144.381 268.396,143.294 266.673 C 142.350 265.177,139.887 262.810,136.675 260.310 C 133.461 257.808,130.429 254.871,129.410 253.271 C 129.111 252.801,128.794 252.349,128.707 252.266 C 128.285 251.864,123.263 243.932,123.263 243.666 C 123.263 243.611,122.719 242.671,122.054 241.577 C 121.390 240.483,120.846 239.522,120.846 239.441 C 120.846 239.360,120.294 238.168,119.620 236.792 C 115.127 227.621,112.488 218.739,112.771 213.746 C 112.856 212.251,112.803 210.347,112.652 209.517 C 111.796 204.786,111.708 203.060,112.217 200.981 C 112.553 199.609,112.744 197.312,112.800 193.958 C 112.929 186.200,114.040 183.123,117.395 181.229 C 119.275 180.168,119.503 179.399,118.278 178.248 C 116.747 176.809,118.903 169.293,121.494 167.034 C 121.802 166.765,122.054 166.186,122.054 165.747 C 122.054 164.888,124.651 160.641,126.354 158.715 C 126.919 158.076,127.706 157.077,128.102 156.495 C 128.499 155.914,129.034 155.234,129.291 154.985 C 129.548 154.736,130.404 153.694,131.192 152.671 C 134.754 148.047,143.711 139.911,147.554 137.808 C 148.068 137.527,148.829 137.072,149.245 136.799 C 150.462 135.997,154.928 133.610,157.704 132.278 C 161.822 130.302,162.709 129.909,163.051 129.909 C 163.229 129.909,164.647 129.381,166.204 128.735 C 169.627 127.314,172.750 126.436,175.982 125.985 C 180.138 125.406,187.748 124.135,187.885 123.998 C 188.268 123.615,191.094 123.935,192.167 124.482 M170.198 134.223 C 168.750 135.696,167.533 136.400,163.370 138.177 C 162.747 138.443,160.917 138.936,159.303 139.273 C 155.326 140.103,154.918 140.719,157.252 142.364 C 160.827 144.883,161.774 144.923,167.221 142.786 C 174.742 139.834,175.034 139.889,175.345 144.312 C 175.459 145.945,175.678 148.165,175.832 149.245 C 176.414 153.348,176.785 160.405,176.593 163.746 C 176.484 165.657,176.287 170.144,176.157 173.716 C 175.968 178.875,175.810 180.460,175.388 181.420 C 174.494 183.454,174.070 183.520,172.473 181.873 C 170.360 179.696,170.096 180.151,170.840 184.691 C 171.340 187.738,172.532 190.504,174.412 192.975 C 175.109 193.891,176.020 195.101,176.435 195.661 C 178.544 198.509,180.927 194.691,180.956 188.418 C 180.967 185.985,181.675 180.968,182.948 174.307 C 183.592 170.940,183.638 170.215,183.364 167.811 C 183.155 165.974,183.154 164.476,183.363 163.142 C 184.228 157.619,184.636 152.890,184.554 149.337 C 184.505 147.209,184.580 144.170,184.721 142.583 C 184.994 139.507,184.607 138.288,182.894 136.827 C 181.829 135.919,178.520 134.371,176.536 133.854 C 175.843 133.673,174.892 133.324,174.421 133.079 C 172.822 132.245,171.896 132.496,170.198 134.223 M224.547 138.069 C 223.314 138.577,223.570 140.707,225.162 143.169 C 226.351 145.008,226.413 145.222,226.486 147.701 C 226.528 149.132,226.696 151.804,226.859 153.641 C 227.147 156.877,227.020 159.532,226.303 165.252 C 226.144 166.520,226.094 168.335,226.192 169.285 C 226.495 172.220,225.132 177.091,223.899 177.482 C 222.910 177.796,216.611 178.608,213.538 178.817 C 210.091 179.052,210.082 179.058,210.556 180.752 C 211.018 182.403,212.551 183.457,216.577 184.892 C 219.668 185.994,220.868 186.811,221.448 188.211 C 221.655 188.713,221.945 189.124,222.091 189.124 C 222.237 189.124,222.356 189.321,222.356 189.563 C 222.356 190.060,224.974 192.749,225.458 192.749 C 225.632 192.749,226.194 193.067,226.709 193.454 C 228.919 195.121,230.273 195.075,231.181 193.304 C 234.147 187.520,234.866 180.467,234.473 161.027 C 234.407 157.787,234.457 153.097,234.583 150.604 C 234.931 143.718,234.215 142.259,229.113 139.464 C 226.250 137.896,225.515 137.671,224.547 138.069 M199.396 146.687 C 199.396 148.140,199.549 148.921,199.947 149.500 C 201.771 152.152,201.791 155.325,200.007 159.256 C 198.772 161.977,199.794 165.985,202.392 168.615 C 202.987 169.217,203.986 170.261,204.611 170.934 C 207.265 173.794,208.156 173.133,210.626 166.476 L 211.803 163.303 211.769 157.615 C 211.730 151.210,211.654 151.011,209.757 152.361 L 208.668 153.136 207.459 152.475 C 205.490 151.396,203.345 149.001,202.403 146.828 C 201.604 144.983,201.486 144.858,200.474 144.770 L 199.396 144.677 199.396 146.687 M165.412 147.318 C 165.160 147.920,164.955 148.585,164.955 148.797 C 164.955 149.008,164.208 150.113,163.295 151.252 C 162.383 152.391,161.144 153.972,160.543 154.766 C 158.385 157.612,157.605 157.291,154.836 152.417 C 153.913 150.792,152.911 149.547,152.526 149.547 C 151.355 149.547,151.687 153.174,153.057 155.343 C 153.453 155.970,153.776 156.569,153.776 156.672 C 153.776 156.776,154.116 157.265,154.532 157.759 C 155.381 158.769,155.468 159.616,154.834 160.725 C 153.855 162.438,154.361 163.297,156.283 163.184 C 159.288 163.006,159.822 163.674,159.040 166.628 C 158.536 168.531,158.664 171.693,159.274 172.429 C 159.750 173.002,158.988 174.568,157.978 175.090 C 155.845 176.193,155.323 175.196,155.845 171.015 C 156.397 166.586,155.829 165.634,153.685 167.401 C 151.858 168.907,151.065 170.909,149.688 177.492 C 149.020 180.683,149.103 181.891,150.076 183.173 C 150.920 184.286,152.841 184.768,153.323 183.988 C 153.426 183.822,153.778 183.686,154.105 183.686 C 155.871 183.686,164.350 178.103,164.350 176.940 C 164.350 176.822,164.707 176.160,165.144 175.468 L 165.937 174.212 165.735 169.055 C 165.476 162.455,165.877 161.697,170.544 159.959 C 172.718 159.150,173.038 157.948,171.414 156.697 C 170.450 155.954,170.465 154.508,171.450 153.172 C 172.943 151.149,172.408 149.073,169.951 147.356 C 167.665 145.759,166.069 145.746,165.412 147.318 M143.293 150.514 C 142.968 150.925,141.989 159.024,141.992 161.271 C 141.998 165.135,140.531 169.969,138.355 173.254 C 135.019 178.292,134.768 180.806,137.122 185.650 C 138.632 188.758,138.686 188.811,140.378 188.817 C 141.836 188.823,141.961 188.661,144.593 183.384 C 147.458 177.638,147.500 177.480,147.618 172.062 C 147.694 168.588,147.856 166.904,148.197 166.051 C 149.473 162.861,149.607 157.391,148.473 154.729 C 146.736 150.649,146.473 150.309,144.989 150.212 C 144.117 150.155,143.488 150.267,143.293 150.514 M168.410 165.430 C 167.745 169.864,169.656 178.550,171.297 178.550 C 172.145 178.550,172.278 177.672,172.039 173.624 C 171.652 167.050,169.048 161.172,168.410 165.430 M199.846 191.243 C 199.394 191.975,197.548 192.442,196.273 192.148 C 193.551 191.520,191.967 191.736,191.311 192.825 C 190.697 193.843,189.829 194.353,185.498 196.240 C 182.326 197.623,180.137 198.324,176.435 199.142 C 172.210 200.076,171.717 200.115,169.025 199.714 L 166.566 199.348 165.121 200.323 C 161.312 202.894,161.499 207.531,165.432 208.022 C 168.838 208.448,175.666 207.024,178.765 205.243 C 179.910 204.585,180.642 204.866,183.272 206.977 C 186.539 209.599,188.938 212.335,188.644 213.103 C 188.565 213.308,187.248 213.847,185.716 214.302 C 184.184 214.756,182.319 215.320,181.571 215.556 C 180.241 215.975,179.402 216.152,173.867 217.177 C 170.102 217.874,164.926 217.626,163.386 216.674 C 160.793 215.071,155.304 217.246,154.689 220.119 C 154.345 221.730,154.457 225.877,154.856 226.276 C 156.077 227.497,163.595 226.146,169.033 223.728 C 169.532 223.507,170.517 223.231,171.222 223.117 C 171.927 223.002,172.581 222.784,172.675 222.632 C 172.769 222.481,173.421 222.356,174.124 222.356 C 174.827 222.356,176.185 222.153,177.142 221.903 C 178.099 221.654,178.999 221.450,179.143 221.450 C 179.715 221.450,181.873 223.794,182.346 224.929 C 182.622 225.591,183.359 226.690,183.985 227.371 L 185.124 228.608 184.686 231.449 C 183.912 236.478,183.998 236.318,181.654 237.073 C 174.170 239.485,169.954 240.236,155.740 241.693 C 149.472 242.335,141.733 244.329,140.855 245.528 C 140.100 246.560,140.916 249.329,142.379 250.695 C 143.434 251.680,147.897 252.564,150.151 252.234 C 153.332 251.768,153.671 251.632,154.680 250.412 C 155.853 248.994,159.644 247.027,162.190 246.515 C 163.129 246.327,164.604 245.973,165.467 245.728 C 169.137 244.689,170.877 246.686,169.136 249.939 C 166.867 254.180,167.267 259.367,170.070 262.041 C 174.020 265.808,176.818 263.502,178.263 255.287 C 179.413 248.745,179.413 248.739,177.954 246.908 C 175.937 244.378,176.685 243.560,181.587 242.930 C 187.082 242.224,187.170 242.279,187.461 246.593 C 188.090 255.905,187.221 262.840,185.426 262.840 C 184.780 262.840,182.607 261.783,182.329 261.334 C 182.107 260.975,180.363 260.915,180.363 261.266 C 180.363 263.578,182.875 268.037,185.718 270.772 C 186.624 271.643,187.973 273.138,188.716 274.094 C 190.609 276.530,193.655 276.437,193.656 273.943 C 193.656 273.569,193.917 272.575,194.237 271.735 C 195.439 268.572,196.073 262.594,196.073 254.415 C 196.073 247.563,196.129 246.706,196.677 245.317 C 197.009 244.474,197.281 243.538,197.281 243.238 C 197.281 242.416,198.123 241.840,200.365 241.127 C 203.764 240.048,204.103 240.228,204.703 243.441 C 205.546 247.950,207.533 254.099,208.700 255.807 C 209.015 256.269,209.629 257.214,210.063 257.907 C 210.498 258.600,211.594 259.658,212.498 260.259 C 213.403 260.859,214.308 261.550,214.510 261.793 C 215.024 262.412,215.500 262.352,217.306 261.441 C 219.398 260.386,219.325 260.596,219.331 255.562 C 219.338 248.626,217.856 246.706,209.063 242.262 C 205.376 240.398,210.532 239.328,217.853 240.438 C 220.112 240.780,224.123 241.212,226.766 241.398 C 232.059 241.769,232.090 241.776,236.405 243.770 C 241.368 246.064,244.897 245.806,244.791 243.158 C 244.724 241.455,243.866 240.640,241.289 239.826 C 240.121 239.458,238.613 238.737,237.936 238.224 C 234.879 235.906,234.576 235.801,230.967 235.801 C 228.686 235.801,227.312 235.943,226.586 236.254 C 225.471 236.732,225.421 236.732,211.480 236.433 C 197.828 236.139,197.013 235.910,199.898 233.176 C 200.893 232.234,207.711 228.097,208.269 228.097 C 208.476 228.097,209.454 227.608,210.441 227.011 C 211.428 226.414,212.898 225.587,213.708 225.174 C 216.087 223.961,219.611 221.575,221.113 220.160 C 223.389 218.016,228.528 214.801,229.673 214.805 C 231.408 214.812,234.490 213.158,234.320 212.311 C 233.936 210.391,232.240 209.028,228.399 207.552 C 227.817 207.328,226.958 206.881,226.488 206.557 C 225.269 205.717,222.936 205.965,221.797 207.057 C 220.718 208.091,219.233 208.105,217.343 207.100 C 215.535 206.139,215.661 206.127,212.592 207.545 C 210.493 208.515,209.513 208.783,207.489 208.943 C 206.112 209.052,204.198 209.408,203.236 209.734 C 196.961 211.862,202.617 205.534,211.178 200.848 C 214.257 199.163,212.493 195.709,207.545 193.731 C 206.294 193.231,204.602 192.397,203.785 191.879 C 202.283 190.926,200.245 190.597,199.846 191.243 M201.848 198.690 C 202.800 199.517,202.062 202.722,200.565 204.262 C 200.171 204.667,199.068 205.853,198.113 206.896 C 194.553 210.787,192.908 210.751,191.041 206.742 C 189.705 203.873,190.076 202.115,192.018 202.115 C 192.235 202.115,192.614 201.828,192.859 201.478 C 194.452 199.203,200.337 197.378,201.848 198.690 M216.448 214.015 C 217.447 214.278,218.037 214.624,218.231 215.060 C 218.673 216.050,218.260 216.432,212.875 220.011 C 212.191 220.466,211.255 221.179,210.795 221.597 C 210.336 222.015,209.851 222.356,209.719 222.356 C 209.587 222.356,209.153 222.661,208.753 223.033 C 207.903 223.825,204.924 225.871,203.360 226.737 C 202.760 227.069,202.104 227.561,201.902 227.828 C 201.364 228.542,199.820 229.099,198.971 228.886 C 198.121 228.673,196.214 225.627,196.487 224.917 C 196.579 224.676,196.110 223.423,195.444 222.134 C 193.489 218.347,193.659 216.314,195.932 216.314 C 196.353 216.314,196.999 216.126,197.367 215.895 C 197.735 215.664,199.600 215.245,201.511 214.964 C 203.421 214.683,205.529 214.266,206.193 214.038 C 207.767 213.499,214.431 213.484,216.448 214.015 " stroke="none" fill="#ffffff" fill-rule="evenodd"></path></g></svg>